PathFileType	4	(X/Y/Z)	64_1_22_p0_0-376_filt_butterworth.trc
DataRate	CameraRate	NumFrames	NumMarkers	Units	OrigDataRate	OrigDataStartFrame	OrigNumFrames
42.0	42.0	7	27	m	42.0	94	376
Frame#	Time	RHip			RKnee			RAnkle			RBigToe			RSmallToe			RHeel			LHip			LKnee			LAnkle			LBigToe			LSmallToe			LHeel			Neck			Head			Nose			RShoulder			RElbow			RWrist			RThumb			RIndex			RPinky			LShoulder			LElbow			LWrist			LThumb			LIndex			LPinky			
		X1	Y1	Z1	X2	Y2	Z2	X3	Y3	Z3	X4	Y4	Z4	X5	Y5	Z5	X6	Y6	Z6	X7	Y7	Z7	X8	Y8	Z8	X9	Y9	Z9	X10	Y10	Z10	X11	Y11	Z11	X12	Y12	Z12	X13	Y13	Z13	X14	Y14	Z14	X15	Y15	Z15	X16	Y16	Z16	X17	Y17	Z17	X18	Y18	Z18	X19	Y19	Z19	X20	Y20	Z20	X21	Y21	Z21	X22	Y22	Z22	X23	Y23	Z23	X24	Y24	Z24	X25	Y25	Z25	X26	Y26	Z26	X27	Y27	Z27	
94	2.238095238095238	0.3014283809932106	0.7406794887826373	0.6023421855584644	0.2862836321868669	0.9502122166015265	0.9569612323472446	0.23729301964778055	1.2215775985347128	1.3181078755160724	0.2830037404707648	1.0937594708012175	1.4159040586708151	0.3453175223108022	1.092310720223851	1.391949450358094	0.19501318003366072	1.339693949360722	1.3411160146041508	0.09805088124049932	0.713928992227466	0.6250459115098437	0.07498506111027636	0.9331617778467178	0.9761045804493407	0.07145701000428663	1.1769398494747545	1.3304347384664954	0.13729895425054903	1.02809264821182	1.4216068387800338	0.05874764708889681	1.063188792273693	1.4106246021157702	0.06663846187124074	1.2464589326879094	1.3562893220315533	0.21905779467636938	0.4288388750135891	0.16897759828229428	0.2562542352835709	0.25817219550287823	0.0007040819090986276	0.2686786501151421	0.26148286649414343	0.13013462669135217	0.3715955112332791	0.5007244053439246	0.22501714151825483	0.4215026422713413	0.7019802720124225	0.4066544635123582	0.38654577931491096	0.5792338834463431	0.6074268469427595	0.3065526027408531	0.5093370688559309	0.6867447202052477	0.2904528660549758	0.5355570893926418	0.7040013706740136	0.3306101401749427	0.5536913719185413	0.7142591639894332	0.08659261424819212	0.4100598343247177	0.2740075407874107	0.014107492241549894	0.5655095849503456	0.49002813034754283	0.17686141197666208	0.5277910089518513	0.6355549885016101	0.2790204352262454	0.5580553154185918	0.6622158987522083	0.29382741745861884	0.5573780337491538	0.6917304746961829	0.2682822192824934	0.5759820372155448	0.7143658291309758
95	2.261904761904762	0.30309317388016543	0.7380189977860097	0.6040649686587245	0.2873311973450735	0.9479490724604139	0.9563642801052158	0.23778026691898133	1.2198926098479856	1.3185975618300425	0.28191026717212747	1.106385394174879	1.4184371194419818	0.3452122009980268	1.103980351222383	1.3914225177815722	0.1962057204732413	1.326541514153015	1.338986929063682	0.10052048707764683	0.7105264444058087	0.6293407487791791	0.07722941726476767	0.9347802437069728	0.9822368863838684	0.07254204168808412	1.176896862898133	1.3301207907634702	0.13538561534429344	1.0481839164145934	1.422128569540632	0.05831579076846405	1.0647441698090236	1.4106796365012981	0.06666498325535357	1.2422690611899938	1.3573947739522416	0.2179975886641938	0.42446352242810287	0.16877718889441004	0.2411614699874038	0.26464852684671103	-0.002911270796458951	0.26871570849350734	0.2613863934346888	0.13018337459222853	0.3693965624862485	0.5012462790166123	0.22080832275125833	0.428772134759281	0.6947385158796817	0.4030220177587288	0.401644887011954	0.5505001314998816	0.5979787876764697	0.3327869982385356	0.48388357838101465	0.6817152192303587	0.3168400760829675	0.5089667173583103	0.696299894604085	0.3350147896600516	0.5493625359926905	0.7054998971973752	0.08584099781543478	0.40995122047860244	0.2768728645856686	0.013603375493590714	0.5687750683440591	0.4924799361779995	0.176524709603703	0.5316162297254852	0.636109611261487	0.2815174295585302	0.5577929867730362	0.6611985350211499	0.2912517273354837	0.5567611248962632	0.6890573279349941	0.27020595625345256	0.5757048680843898	0.7118134705182046
96	2.2857142857142856	0.30777820641173004	0.7282094861925152	0.6025768197436661	0.2892189630575212	0.94332325706424	0.9571185745253565	0.24023174484971188	1.2203522015126445	1.317161096750705	0.28119486054245474	1.1152173092222113	1.4197861415276867	0.34516190614377107	1.1109510980908235	1.3901853946252767	0.1965698884038542	1.3210275433606975	1.3371419636400825	0.10139480542496633	0.7130797745408682	0.6375511615361968	0.0813986449662723	0.9323614748908964	0.9865583923766669	0.07286010569624382	1.1772885884752489	1.3301843859633722	0.134870507391377	1.052815878095041	1.421952887819769	0.05820554676330208	1.0697721171882983	1.4105810479833574	0.06677495643908501	1.2363061547782792	1.3590160621964136	0.21453415070025186	0.4259651437963568	0.16796729645158603	0.22939653115212563	0.26972140202344363	-0.006689189167275732	0.268991502802341	0.2608309995549604	0.12962379291169512	0.36589328382196473	0.5044804430251136	0.215989741378531	0.44996919489101556	0.6738631503096995	0.3940052057995025	0.42105182900888305	0.51196350444988	0.585106876015481	0.34886395639513174	0.4666886921119742	0.6601949568502478	0.3470922233887693	0.4719213256949828	0.6794823171341574	0.36030827669406496	0.5145528722185416	0.691087041907221	0.08574223923216151	0.4102508291292226	0.2777933513586085	0.013488658219202773	0.5693547208312453	0.49376210750545513	0.17691100847375077	0.5269489610391932	0.6368360120820657	0.2794150848253083	0.5569865491845587	0.6589777809587796	0.2867889305275864	0.5541201491834951	0.6864506868147602	0.26746141601706436	0.5684682291946258	0.7097410508439285
97	2.3095238095238093	0.3137936053576711	0.727602404160788	0.6021599502751463	0.292839122299135	0.9409758108907769	0.9579654327902792	0.2444622090924714	1.2205207920748289	1.3159413163922447	0.2813377599523231	1.1126524460203546	1.4196640588352005	0.3451655725539355	1.107207114739816	1.3896445156306434	0.19653279479060518	1.3235140102926595	1.337119767688317	0.10330754436628797	0.7177966871603999	0.6477037501569255	0.08667769054402479	0.9288071079421278	0.9903630697566748	0.07299921330396437	1.1774125553453314	1.3302436813769398	0.1356902165444883	1.0451590635952164	1.4218194972962062	0.057828475537696725	1.0765774770094785	1.4105075213592815	0.06678070870160689	1.2333133101370424	1.360071337312352	0.20932457653987158	0.4271506204491045	0.1678761210116368	0.2200246589255902	0.27287293421120157	-0.009734069127554803	0.26873054070694624	0.26062579865247515	0.12809748649551367	0.36192133753864064	0.5093740192084547	0.21168727185820485	0.48129856893121403	0.6518382395223767	0.3798013252943879	0.4379662043654992	0.4902143958034123	0.55765545965666	0.35842405409881783	0.45421716118055355	0.625307788000131	0.37475873975396035	0.434058095363736	0.6492736718141221	0.40088689341790035	0.4731291442925952	0.65985487985136	0.08498181824877771	0.4091664295991898	0.27811611439211087	0.013645940260341646	0.5621517562529389	0.4967720139418458	0.17625539472992097	0.5226501882599411	0.6374070262962311	0.276886669769726	0.5595514614435153	0.6535671679564923	0.28372787206662997	0.5526087837671714	0.6825526126908981	0.2643325646547739	0.5601864447694304	0.7090870158427206
98	2.333333333333333	0.3151574494904678	0.7409986356341658	0.6029850533623973	0.2965084044506124	0.9406378841422502	0.9568670024275643	0.24727406580609979	1.2177416429008399	1.3166393581749132	0.28184401536139075	1.1023622424640118	1.4191788252431352	0.34511691153753976	1.0991650433324889	1.3914579795362356	0.19804691231588045	1.3275537577049727	1.337695849474805	0.10633596254781766	0.719617664431107	0.6505274829702887	0.09137561803491417	0.9262518870533542	0.9897568022973181	0.0731657246518169	1.1770941966932267	1.3295708804979927	0.1364361463710404	1.0384726388301981	1.4215604846966783	0.05703113400082556	1.0805089446253655	1.4105060415363841	0.06674283553038149	1.2335184546358244	1.3602022238088813	0.20630478769846614	0.4249029241170977	0.16914369177950767	0.2128339738573275	0.27616789330881236	-0.011722447728532807	0.26638523362555716	0.2628256759944523	0.1254278746512843	0.3584823251332243	0.5139576783782485	0.20888223613028034	0.5035866151327294	0.6438285723252399	0.36500136947459255	0.4495330408022001	0.49199280887407254	0.5204837094730346	0.36885761079292895	0.4329524507169793	0.5933709896590618	0.39508597202266993	0.39796604600854707	0.6157628530687984	0.433196878731669	0.44917401622934694	0.619547073315069	0.08356364828989611	0.4074589318286226	0.27859185279706844	0.013633138065699137	0.5505452320011046	0.5008974128370595	0.17654248362086672	0.5229076069064992	0.6378619287929576	0.2770602667007978	0.5624613077628688	0.6486037595159457	0.28299296589274814	0.5567883588695848	0.6786351224188538	0.2635982808083601	0.5601227783436217	0.7092622017364405
99	2.357142857142857	0.3093078415859056	0.7496185741456667	0.6031479497955065	0.2978720573518639	0.9391609243239936	0.9523989158776276	0.24750031817858642	1.2140951804992155	1.3178467343150826	0.2820026386831845	1.094407732997905	1.4191755126485082	0.3448144170017747	1.0975385993934272	1.394433163006733	0.19933228156778643	1.3276806218920751	1.337784917781275	0.10805502536192138	0.7191611600716724	0.6452533012928041	0.09416369615955837	0.9242504400113041	0.9851568147447685	0.0730655649223372	1.1772480299850188	1.3284576604450962	0.13653702682153368	1.0367319275658624	1.421331107657221	0.05715171092491278	1.081170993512389	1.4103824485624035	0.0668272512996901	1.2342242973516928	1.3598673908198502	0.20615942946519678	0.4213662772173627	0.1705883517921773	0.2097824794011096	0.2779792094692542	-0.012090610057770438	0.26264837548496067	0.26658943193330176	0.12197182627159239	0.35381158531793994	0.5195038866825155	0.20429518172534675	0.5102485108833972	0.6462713963186903	0.34910563723482585	0.46165392180787856	0.49566024129733177	0.4847044333044681	0.38589803346388807	0.3987837554565108	0.5660374494772284	0.40778773120899325	0.3666563092149397	0.5827660464590185	0.4463200761453475	0.43197307920169187	0.585365587613916	0.08257266423723846	0.4066223994280354	0.27927561754352515	0.012982751784974739	0.5447863165515977	0.5030159390360217	0.1801086780128185	0.5243882805048653	0.6377934418916812	0.2807187100909771	0.558213335001429	0.6455959165565085	0.28626476554427827	0.5618452300230441	0.6751362818350515	0.2640596481118814	0.5653404728118581	0.7075165465782339
100	2.380952380952381	0.30204820995431597	0.7464345680627836	0.5995264485077008	0.29742526401271757	0.9442356754878334	0.9458321911215655	0.24680115614956893	1.213097792817456	1.3181618863806432	0.28161617007681455	1.0985879743351672	1.4195450500259714	0.34415985470304034	1.1080142763698966	1.3959612366780305	0.19849448294451058	1.3202592854680766	1.338392019303875	0.10728422187932918	0.7192556447489693	0.641383130002466	0.09457865163485765	0.9232088233605439	0.9831797353618026	0.07262149819873785	1.1788962044470217	1.329132239697178	0.13634194859953386	1.0392954610746563	1.4225744011564543	0.059948417529355105	1.0802872950481552	1.4101086718110227	0.06690844330674398	1.2345945609755926	1.359439986118084	0.206169006435513	0.4158987944543573	0.17186335558435387	0.21040756234139804	0.2750702659542894	-0.009980132856086793	0.260425502586276	0.26890460806803773	0.119819314219686	0.34563499324518987	0.5289909842339685	0.194232984268354	0.5104309838164077	0.6513313823510456	0.3215143962632083	0.4758173804005412	0.4826861137334486	0.4477293820897802	0.4136845528856822	0.35824550059534843	0.5312656015308517	0.4219289021116367	0.33486283130605543	0.5476230463126879	0.4513295523291372	0.4219312196569454	0.558655243458826	0.08178528273297386	0.40662237464414924	0.2807583242870384	0.011997675068272715	0.545990200536903	0.503814930592065	0.18421448966321385	0.5218825835914513	0.6374930069141084	0.28982785219076446	0.546795704674941	0.6435665549895581	0.2955677052682262	0.5538995264125554	0.672237562543515	0.2640624337438494	0.5648483666378102	0.7041955026364867
